<?xml version="1.0" encoding="UTF-8"?>
<svg version="1.1" xmlns="http://www.w3.org/2000/svg" width="163" height="65">
<path d="M0 0 C1.14826263 -0.01293594 2.29652527 -0.02587189 3.47958374 -0.03919983 C4.74558914 -0.04817291 6.01159454 -0.057146 7.31596375 -0.06639099 C8.65788576 -0.07920099 9.9998047 -0.09233643 11.34172058 -0.10577393 C23.58907201 -0.22165171 35.83723697 -0.27829821 48.08503437 -0.32254124 C57.14040916 -0.35580072 66.19478525 -0.41539261 75.24973136 -0.51005226 C81.61496432 -0.57434876 87.97992483 -0.60807244 94.34547013 -0.61929077 C98.14840914 -0.6268567 101.95014182 -0.64807817 105.7527256 -0.70231819 C109.33104482 -0.75275728 112.90751899 -0.76536321 116.48613739 -0.74906731 C118.42362515 -0.74995879 120.36096723 -0.79057816 122.29800415 -0.8323822 C130.60840123 -0.74299003 130.60840123 -0.74299003 133.46837425 1.92332649 C134.78133948 3.97341096 135.73602935 5.89978639 136.59208679 8.17408752 C136.9697821 9.05451721 137.34747742 9.9349469 137.73661804 10.84205627 C141.60049346 25.4163232 141.76494772 43.83932123 134.52958679 57.36158752 C132.59208679 60.17408752 132.59208679 60.17408752 130.59208679 61.17408752 C128.8021435 61.27805529 127.00834046 61.3179555 125.21540833 61.32798767 C124.07411469 61.33658813 122.93282104 61.3451886 121.75694275 61.35404968 C119.86960419 61.36043961 119.86960419 61.36043961 117.94413757 61.36695862 C116.61044602 61.37485908 115.27675661 61.38312799 113.94306946 61.39173889 C109.55786685 61.41796173 105.17265467 61.43326502 100.78739929 61.44752502 C99.27871062 61.45288427 97.77002201 61.45826177 96.26133347 61.46365738 C89.98705689 61.48528493 83.71278289 61.50402288 77.43847847 61.51527977 C68.44093242 61.53152793 59.4438176 61.56472756 50.44643414 61.62168062 C44.12281664 61.66034725 37.79931464 61.67990843 31.475582 61.68520033 C27.69703279 61.68885787 23.91894347 61.70092092 20.140522 61.73330307 C16.58631041 61.76332745 13.03283834 61.76971646 9.47852707 61.75791931 C7.55171043 61.75759259 5.62493981 61.78209508 3.69828796 61.80729675 C2.55135468 61.79897827 1.40442139 61.79065979 0.22273254 61.78208923 C-0.77389341 61.78539938 -1.77051937 61.78870953 -2.79734612 61.79211998 C-6.39849447 60.93957474 -7.41233315 59.20050836 -9.40791321 56.17408752 C-10.63838196 53.70924377 -10.63838196 53.70924377 -11.59541321 51.23658752 C-11.9189679 50.42318909 -12.24252258 49.60979065 -12.57588196 48.77174377 C-16.72088729 35.83076469 -15.98851085 18.2478923 -10.38838196 5.93190002 C-7.53919561 0.61768729 -5.7953743 0.05476833 0 0 Z " fill="#FEFEFE" transform="translate(18.407913208007813,1.8259124755859375)"/>
<path d="M0 0 C0.96084503 0.00007553 1.92169006 0.00015106 2.91165161 0.00022888 C3.95127045 0.00539017 4.99088928 0.01055145 6.06201172 0.01586914 C7.12459198 0.01728409 8.18717224 0.01869904 9.2819519 0.02015686 C12.68522931 0.02576705 16.0884416 0.0383213 19.49169922 0.05102539 C21.79508369 0.05603908 24.09846918 0.06060221 26.40185547 0.06469727 C32.05682571 0.0757398 37.71175781 0.09248788 43.36669922 0.11352539 C43.03669922 0.77352539 42.70669922 1.43352539 42.36669922 2.11352539 C26.85669922 2.44352539 11.34669922 2.77352539 -4.63330078 3.11352539 C-11.27983386 16.40659155 -11.8993356 29.96445394 -9.32080078 44.42602539 C-9.20325439 45.09617676 -9.08570801 45.76632813 -8.96459961 46.45678711 C-8.08088919 50.98432075 -6.78004925 53.82002846 -4.63330078 58.11352539 C40.24669922 58.11352539 85.12669922 58.11352539 131.36669922 58.11352539 C138.81602755 43.21486873 139.29897503 26.93464177 135.31591797 10.81274414 C134.24731494 7.7740417 133.39841645 5.63793068 131.36669922 3.11352539 C128.66549025 2.59373619 126.57329914 2.4216031 123.8659668 2.45410156 C122.72414192 2.43837601 122.72414192 2.43837601 121.55924988 2.42233276 C119.04283152 2.393528 116.5277845 2.39988009 114.01123047 2.40649414 C112.2667213 2.39338228 110.52222733 2.37807964 108.77775574 2.360672 C104.18604559 2.32074869 99.5947319 2.31062688 95.00286865 2.30664062 C90.31738197 2.29732292 85.63212958 2.25991803 80.94677734 2.22485352 C71.75342898 2.16020317 62.56025499 2.12702421 53.36669922 2.11352539 C53.36669922 1.45352539 53.36669922 0.79352539 53.36669922 0.11352539 C63.58035325 -0.07188406 73.79360671 -0.21400508 84.00860119 -0.30097198 C88.75202583 -0.34271411 93.49429881 -0.39932129 98.23706055 -0.48999023 C102.81480008 -0.57695608 107.39143261 -0.62475609 111.96993446 -0.64549255 C113.71599066 -0.66026795 115.4619866 -0.68912323 117.20757103 -0.73231506 C130.90830604 -1.05781656 130.90830604 -1.05781656 134.53364563 1.85395813 C135.86964046 3.93922613 136.67313047 5.74545384 137.36669922 8.11352539 C137.74439453 8.99395508 138.12208984 9.87438477 138.51123047 10.78149414 C142.37510589 25.35576107 142.53956014 43.77875909 135.30419922 57.30102539 C133.36669922 60.11352539 133.36669922 60.11352539 131.36669922 61.11352539 C129.57675593 61.21749316 127.78295289 61.25739337 125.99002075 61.26742554 C124.84872711 61.276026 123.70743347 61.28462646 122.53155518 61.29348755 C120.64421661 61.29987747 120.64421661 61.29987747 118.71875 61.30639648 C117.38505845 61.31429694 116.05136904 61.32256586 114.71768188 61.33117676 C110.33247928 61.35739959 105.94726709 61.37270288 101.56201172 61.38696289 C100.05332305 61.39232213 98.54463444 61.39769964 97.03594589 61.40309525 C90.76166931 61.42472279 84.48739532 61.44346075 78.2130909 61.45471764 C69.21554485 61.4709658 60.21843003 61.50416543 51.22104657 61.56111848 C44.89742906 61.59978511 38.57392707 61.6193463 32.25019443 61.6246382 C28.47164521 61.62829574 24.69355589 61.64035878 20.91513443 61.67274094 C17.36092284 61.70276531 13.80745076 61.70915433 10.2531395 61.69735718 C8.32632286 61.69703045 6.39955224 61.72153294 4.47290039 61.74673462 C3.3259671 61.73841614 2.17903381 61.73009766 0.99734497 61.7215271 C0.00071901 61.72483725 -0.99590694 61.72814739 -2.02273369 61.73155785 C-5.62388204 60.8790126 -6.63772072 59.13994622 -8.63330078 56.11352539 C-9.86376953 53.64868164 -9.86376953 53.64868164 -10.82080078 51.17602539 C-11.14435547 50.36262695 -11.46791016 49.54922852 -11.80126953 48.71118164 C-15.94627486 35.77020255 -15.21389842 18.18733016 -9.61376953 5.87133789 C-6.97072521 0.94161478 -5.41268616 -0.01416934 0 0 Z " fill="#7F7F7F" transform="translate(17.63330078125,1.886474609375)"/>
<path d="M0 0 C1.98 0 3.96 0 6 0 C6.32613281 0.79664062 6.65226562 1.59328125 6.98828125 2.4140625 C7.64376953 4.00347656 7.64376953 4.00347656 8.3125 5.625 C8.74175781 6.66914063 9.17101562 7.71328125 9.61328125 8.7890625 C10.96159855 11.9110817 12.47914738 14.95829476 14 18 C16.31 12.06 18.62 6.12 21 0 C23.31 0 25.62 0 28 0 C28 9.9 28 19.8 28 30 C26.35 30 24.7 30 23 30 C22.67 24.06 22.34 18.12 22 12 C21.195625 14.124375 20.39125 16.24875 19.5625 18.4375 C17.125 24.875 17.125 24.875 16 26 C14.35 26 12.7 26 11 26 C9.35 21.71 7.7 17.42 6 13 C5.67 18.61 5.34 24.22 5 30 C3.35 30 1.7 30 0 30 C0 20.1 0 10.2 0 0 Z " fill="#0E0E0E" transform="translate(95,22)"/>
<path d="M0 0 C0 0.66 0 1.32 0 2 C4.29 2 8.58 2 13 2 C13 6.29 13 10.58 13 15 C9.04 15 5.08 15 1 15 C1 18.96 1 22.92 1 27 C-3.62 27 -8.24 27 -13 27 C-13 23.04 -13 19.08 -13 15 C-14.98 15 -16.96 15 -19 15 C-15.43350647 11.34121273 -11.73472795 7.9600635 -7.8125 4.6875 C-7.27947266 4.23310547 -6.74644531 3.77871094 -6.19726562 3.31054688 C-2.23954417 0 -2.23954417 0 0 0 Z " fill="#FB0707" transform="translate(44,25)"/>
<path d="M0 0 C2.9375 1.125 2.9375 1.125 5 3 C6.3125 6.1875 6.3125 6.1875 7 9 C4.6875 9.1875 4.6875 9.1875 2 9 C1.566875 8.505 1.13375 8.01 0.6875 7.5 C-1.44339488 5.60587121 -2.3151785 5.83908153 -5.10546875 5.90625 C-7.03326172 5.95265625 -7.03326172 5.95265625 -9 6 C-9.02690844 8.62506802 -9.04679404 11.24986173 -9.0625 13.875 C-9.07087891 14.62136719 -9.07925781 15.36773437 -9.08789062 16.13671875 C-9.20688084 20.19845578 -9.20688084 20.19845578 -8 24 C-4.62535976 24.2503577 -4.62535976 24.2503577 -1 24 C0.62514468 22.54166642 0.62514468 22.54166642 2 21 C4.6875 20.8125 4.6875 20.8125 7 21 C5.82347675 25.41196217 4.95453342 27.64528658 1 30 C-3.71705462 30.85137083 -7.7735461 30.66432919 -12 28.375 C-16.05824876 23.55582959 -16.3915237 18.56061588 -16.25390625 12.46875 C-15.78775675 7.9363426 -14.33519084 4.59195831 -11.375 1.0625 C-7.61543815 -0.61940925 -4.04544488 -0.52012863 0 0 Z " fill="#0E0E0E" transform="translate(81,22)"/>
<path d="M0 0 C4.29 0 8.58 0 13 0 C14 5 14 5 12.95532227 6.64990234 C12.41447998 7.12379395 11.8736377 7.59768555 11.31640625 8.0859375 C10.7219873 8.6212207 10.12756836 9.15650391 9.51513672 9.70800781 C8.54858154 10.53316895 8.54858154 10.53316895 7.5625 11.375 C6.91812988 11.94573242 6.27375977 12.51646484 5.60986328 13.10449219 C4.32969322 14.2356256 3.04365896 15.36016153 1.75146484 16.47753906 C0.28798256 17.74967114 -1.14687438 19.05463714 -2.57421875 20.3671875 C-7.47826087 24.86956522 -7.47826087 24.86956522 -12 26 C-12 21.71 -12 17.42 -12 13 C-8.04 13 -4.08 13 0 13 C0 8.71 0 4.42 0 0 Z " fill="#FA0E0E" transform="translate(31,14)"/>
<path d="M0 0 C0.96084503 0.00007553 1.92169006 0.00015106 2.91165161 0.00022888 C3.95127045 0.00539017 4.99088928 0.01055145 6.06201172 0.01586914 C7.12459198 0.01728409 8.18717224 0.01869904 9.2819519 0.02015686 C12.68522931 0.02576705 16.0884416 0.0383213 19.49169922 0.05102539 C21.79508369 0.05603908 24.09846918 0.06060221 26.40185547 0.06469727 C32.05682571 0.0757398 37.71175781 0.09248788 43.36669922 0.11352539 C43.03669922 0.77352539 42.70669922 1.43352539 42.36669922 2.11352539 C26.85669922 2.44352539 11.34669922 2.77352539 -4.63330078 3.11352539 C-11.27983386 16.40659155 -11.8993356 29.96445394 -9.32080078 44.42602539 C-9.20325439 45.09617676 -9.08570801 45.76632813 -8.96459961 46.45678711 C-8.12285533 50.76931468 -6.59737025 54.21418513 -4.63330078 58.11352539 C-4.96330078 58.77352539 -5.29330078 59.43352539 -5.63330078 60.11352539 C-14.78195066 47.2559634 -15.31044917 31.64695889 -13.09423828 16.40649414 C-11.79416225 10.72759062 -9.94120954 5.91532843 -6.63330078 1.11352539 C-4.21555497 -0.09534751 -2.69999014 -0.00706804 0 0 Z " fill="#575757" transform="translate(17.63330078125,1.886474609375)"/>
<path d="M0 0 C1.65 0 3.3 0 5 0 C5 9.9 5 19.8 5 30 C3.35 30 1.7 30 0 30 C0 20.1 0 10.2 0 0 Z " fill="#040404" transform="translate(131,22)"/>
<path d="M0 0 C3 1 3 1 4.09765625 2.75 C4.41605469 3.4925 4.73445312 4.235 5.0625 5 C5.38347656 5.721875 5.70445312 6.44375 6.03515625 7.1875 C8.55847104 14.54291155 9.36084434 21.55892136 9.3125 29.3125 C9.30831055 30.23240723 9.30412109 31.15231445 9.29980469 32.10009766 C9.1348984 42.05587623 7.53377985 50.60392023 2 59 C1.34 59 0.68 59 0 59 C0.268125 58.360625 0.53625 57.72125 0.8125 57.0625 C1.77013337 54.59281393 2.69050029 52.12558741 3.5625 49.625 C3.93568359 48.56152344 3.93568359 48.56152344 4.31640625 47.4765625 C7.78594457 34.90692081 7.30779837 19.24974763 3 7 C2.01484428 5.32451619 1.01754886 3.6560109 0 2 C0 1.34 0 0.68 0 0 Z " fill="#282828" transform="translate(149,3)"/>
<path d="M0 0 C0.66 0 1.32 0 2 0 C1.731875 0.61875 1.46375 1.2375 1.1875 1.875 C-1.60046023 9.21173744 -3.36848577 16.16922359 -4 24 C-4.33 24 -4.66 24 -5 24 C-6.65166359 14.55679294 -5.32272173 7.98408259 0 0 Z " fill="#323232" transform="translate(11,3)"/>
<path d="M0 0 C1.2065625 0.0309375 1.2065625 0.0309375 2.4375 0.0625 C3.5625 3.8125 3.5625 3.8125 2.4375 6.0625 C0.7875 6.0625 -0.8625 6.0625 -2.5625 6.0625 C-2.94468767 4.40635343 -3.27645102 2.73792976 -3.5625 1.0625 C-2.5625 0.0625 -2.5625 0.0625 0 0 Z " fill="#F61313" transform="translate(133.5625,13.9375)"/>
<path d="M0 0 C1.1484375 1.671875 1.1484375 1.671875 2 4 C1.1015625 6.578125 1.1015625 6.578125 -0.375 9.25 C-1.09816406 10.58804688 -1.09816406 10.58804688 -1.8359375 11.953125 C-2.22007812 12.62859375 -2.60421875 13.3040625 -3 14 C-3.66 14 -4.32 14 -5 14 C-4.731875 13.360625 -4.46375 12.72125 -4.1875 12.0625 C-2.64635858 8.08797739 -1.32390688 4.05115505 0 0 Z " fill="#2E2E2E" transform="translate(154,48)"/>
<path d="M0 0 C1.98974713 2.80905477 2.1011012 4.87286664 1.75 8.1875 C1.5025 9.445625 1.255 10.70375 1 12 C0.01 12.495 0.01 12.495 -1 13 C-1.0272415 11.58344207 -1.04650467 10.16672955 -1.0625 8.75 C-1.07410156 7.96109375 -1.08570313 7.1721875 -1.09765625 6.359375 C-1.00385306 4.09308998 -0.63241063 2.1711105 0 0 Z " fill="#191919" transform="translate(156,37)"/>
<path d="M0 0 C0.66 0.33 1.32 0.66 2 1 C0.75453595 4.73639216 -0.63404953 5.18756513 -4 7 C-2.79618552 4.50638429 -1.54571278 2.31856917 0 0 Z " fill="#FEF3F3" transform="translate(29,32)"/>
</svg>
